<svg width="40" height="41" viewBox="0 0 40 41" fill="none" xmlns="http://www.w3.org/2000/svg">
<path d="M23.5156 20.5C23.5156 22.4901 21.9415 24.1035 20 24.1035C18.0585 24.1035 16.4844 22.4901 16.4844 20.5C16.4844 18.5099 18.0585 16.8965 20 16.8965C21.9415 16.8965 23.5156 18.5099 23.5156 20.5Z" fill="white"/>
<path d="M25.9375 9.60938H14.0625C11.4777 9.60938 9.375 11.7646 9.375 14.4141V26.5859C9.375 29.2354 11.4777 31.3906 14.0625 31.3906H25.9375C28.5223 31.3906 30.625 29.2354 30.625 26.5859V14.4141C30.625 11.7646 28.5223 9.60938 25.9375 9.60938ZM20 26.5059C16.7691 26.5059 14.1406 23.8117 14.1406 20.5C14.1406 17.1883 16.7691 14.4941 20 14.4941C23.2309 14.4941 25.8594 17.1883 25.8594 20.5C25.8594 23.8117 23.2309 26.5059 20 26.5059ZM26.7188 14.8145C26.0715 14.8145 25.5469 14.2767 25.5469 13.6133C25.5469 12.9498 26.0715 12.4121 26.7188 12.4121C27.366 12.4121 27.8906 12.9498 27.8906 13.6133C27.8906 14.2767 27.366 14.8145 26.7188 14.8145Z" fill="white"/>
<path d="M29.4531 0H10.5469C4.73145 0 0 4.84973 0 10.8105V30.1895C0 36.1503 4.73145 41 10.5469 41H29.4531C35.2686 41 40 36.1503 40 30.1895V10.8105C40 4.84973 35.2686 0 29.4531 0ZM32.9688 26.5859C32.9688 30.5598 29.8145 33.793 25.9375 33.793H14.0625C10.1855 33.793 7.03125 30.5598 7.03125 26.5859V14.4141C7.03125 10.4402 10.1855 7.20703 14.0625 7.20703H25.9375C29.8145 7.20703 32.9688 10.4402 32.9688 14.4141V26.5859Z" fill="white"/>
</svg>
