<svg width="40" height="40" viewBox="0 0 40 40" fill="none" xmlns="http://www.w3.org/2000/svg">
<path d="M37.8011 2.20032C36.3347 0.733531 34.5679 0 32.5021 0H7.50191C5.43613 0 3.66934 0.733531 2.20227 2.20032C0.735485 3.66738 0.00195312 5.43408 0.00195312 7.49995V32.4998C0.00195312 34.5655 0.735485 36.3324 2.20227 37.7995C3.66934 39.2665 5.43613 40.0001 7.50191 40.0001H32.5018C34.5676 40.0001 36.3344 39.2665 37.8008 37.7995C39.2679 36.3324 40.0014 34.5656 40.0014 32.4998V7.49995C40.0013 5.43408 39.2678 3.66711 37.8011 2.20032ZM30.6009 15.3907C30.6183 15.547 30.6271 15.7809 30.6271 16.094C30.6271 17.5524 30.4142 19.0151 29.9891 20.4817C29.564 21.949 28.9128 23.3552 28.0357 24.7006C27.1595 26.0459 26.1135 27.2355 24.8983 28.2684C23.6829 29.3009 22.2248 30.1259 20.5231 30.7418C18.8221 31.3586 16.9989 31.667 15.0546 31.667C12.034 31.667 9.23887 30.8504 6.66932 29.2192C7.08598 29.271 7.52024 29.2972 7.97138 29.2972C10.4888 29.2972 12.7545 28.5159 14.7684 26.953C13.5881 26.9361 12.5332 26.5718 11.6045 25.8593C10.6755 25.1476 10.029 24.2449 9.66429 23.1511C10.1155 23.2204 10.454 23.2548 10.6797 23.2548C11.0616 23.2548 11.5044 23.1855 12.0077 23.0469C10.7404 22.8035 9.67286 22.1748 8.80479 21.1591C7.93654 20.1434 7.50255 18.9846 7.50255 17.6826V17.6306C8.42243 18.0643 9.2905 18.2899 10.1066 18.3075C8.52668 17.2483 7.73678 15.7294 7.73678 13.7503C7.73678 12.778 7.98835 11.8579 8.49184 10.9898C9.86322 12.674 11.5302 14.0193 13.4917 15.0262C15.4535 16.033 17.5544 16.5975 19.7938 16.7189C19.7072 16.3891 19.6636 15.9722 19.6636 15.4689C19.6636 13.9582 20.1975 12.6694 21.2653 11.6016C22.3328 10.5339 23.622 9.99981 25.1322 9.99981C26.7298 9.99981 28.0582 10.5729 29.1171 11.7188C30.3151 11.4931 31.4788 11.0502 32.6069 10.3907C32.173 11.7272 31.3652 12.7429 30.1852 13.4374C31.3133 13.2809 32.3634 12.9859 33.3354 12.5519C32.6063 13.663 31.6946 14.6091 30.6009 15.3907Z" fill="white"/>
</svg>
