<svg width="40" height="42" viewBox="0 0 40 42" fill="none" xmlns="http://www.w3.org/2000/svg">
<path d="M34.6098 0H5.39012C2.4133 0 0 2.53384 0 5.65958V36.3402C0 39.466 2.4132 41.9998 5.39012 41.9998H19.8011L19.8257 26.9913H16.1121C15.6295 26.9913 15.2378 26.5816 15.236 26.0749L15.2182 21.237C15.2163 20.7275 15.6092 20.3135 16.0944 20.3135H19.8012V15.6389C19.8012 10.2141 22.9566 7.26021 27.5655 7.26021H31.3474C31.8313 7.26021 32.2237 7.67211 32.2237 8.18027V12.2596C32.2237 12.7675 31.8316 13.1793 31.3479 13.1796L29.027 13.1808C26.5205 13.1808 26.0352 14.4313 26.0352 16.2666V20.3136H31.5427C32.0675 20.3136 32.4747 20.7947 32.4128 21.3419L31.8667 26.1798C31.8145 26.6427 31.4406 26.9915 30.9966 26.9915H26.0598L26.0352 42H34.61C37.5868 42 40 39.4662 40 36.3405V5.65958C39.9999 2.53384 37.5867 0 34.6098 0Z" fill="white"/>
</svg>
